<mxfile host="65bd71144e" modified="2021-02-08T11:50:34.487Z" agent="5.0 (Macintosh; Intel Mac OS X 11_0_0) AppleWebKit/537.36 (KHTML, like Gecko) Code/1.52.1 Chrome/83.0.4103.122 Electron/9.3.5 Safari/537.36" etag="-FE9_mDiITXcVENaxSX6" version="13.10.0" type="embed">
    <diagram name="Page-1" id="bd83a815-5ea8-2e97-e5ec-87c9f400f2fa">
        <mxGraphModel dx="820" dy="458" grid="1" gridSize="10" guides="1" tooltips="1" connect="1" arrows="1" fold="1" page="1" pageScale="1.5" pageWidth="1169" pageHeight="826" background="#ffffff" math="0" shadow="0">
            <root>
                <mxCell id="0" style=";html=1;"/>
                <mxCell id="1" style=";html=1;" parent="0"/>
                <mxCell id="1516e18e63f93b96-1" value="&lt;table style=&quot;width: 100% ; height: 100% ; border-collapse: collapse&quot; width=&quot;100%&quot; cellpadding=&quot;4&quot; border=&quot;1&quot;&gt;&lt;tbody&gt;&lt;tr style=&quot;background-color: #a7c942 ; color: #ffffff ; border: 1px solid #98bf21&quot;&gt;&lt;th&gt;http Methode&lt;/th&gt;&lt;th&gt;URI&lt;br&gt;&lt;/th&gt;&lt;th&gt;Funktion&lt;/th&gt;&lt;th&gt;Beschreibung&lt;/th&gt;&lt;td&gt;&lt;b&gt;Body-Inhalt&lt;/b&gt;&lt;br&gt;&lt;/td&gt;&lt;td&gt;&lt;b&gt;Inhalt-Antwort&lt;/b&gt;&lt;/td&gt;&lt;/tr&gt;&lt;tr style=&quot;border: 1px solid #98bf21&quot;&gt;&lt;td&gt;GET&lt;br&gt;&lt;/td&gt;&lt;td&gt;/api/turnierverwaltung&lt;br&gt;/getTurniere&lt;br&gt;&lt;/td&gt;&lt;td&gt;getTurniere()&lt;br&gt;&lt;/td&gt;&lt;td&gt;gibt Turniere aus DB zurück&lt;br&gt;&lt;/td&gt;&lt;td&gt;-&lt;/td&gt;&lt;td&gt;[&amp;nbsp;&amp;nbsp;&lt;br&gt;&amp;nbsp; {&lt;br&gt;&amp;nbsp; &amp;nbsp; id: integer,&lt;br&gt;&amp;nbsp; &amp;nbsp; name: string,&lt;br&gt;&amp;nbsp; &amp;nbsp; teamIds: Array&amp;lt;integer&amp;gt;,&lt;br&gt;&amp;nbsp; &amp;nbsp; games: Array&amp;lt;game&amp;gt;&lt;br&gt;&amp;nbsp; },&lt;br&gt;...&lt;br&gt;]&lt;/td&gt;&lt;/tr&gt;&lt;tr style=&quot;background-color: #eaf2d3 ; border: 1px solid #98bf21&quot;&gt;&lt;td&gt;POST&lt;br&gt;&lt;/td&gt;&lt;td&gt;/api/turnierverwaltung&lt;br&gt;/createTurnier&lt;/td&gt;&lt;td&gt;createTurnier()&lt;br&gt;&lt;/td&gt;&lt;td&gt;erstellt ein neues Turnier und&lt;br&gt;speichert dieses in die DB&lt;/td&gt;&lt;td&gt;{&lt;br&gt;&amp;nbsp; name: string&lt;br&gt;}&lt;/td&gt;&lt;td&gt;{&lt;br&gt;&amp;nbsp;id: integer,&lt;br&gt;&amp;nbsp;name: string,&lt;br&gt;&amp;nbsp;teamIds: Array&amp;lt;integer&amp;gt;,&lt;br&gt;&amp;nbsp;games: Array&amp;lt;game&amp;gt;&lt;br&gt;}&lt;br&gt;&lt;/td&gt;&lt;/tr&gt;&lt;tr style=&quot;border: 1px solid #98bf21&quot;&gt;&lt;td&gt;DELETE&lt;br&gt;&lt;/td&gt;&lt;td&gt;/api/turnierverwaltung&lt;br&gt;/deleteTurnier/:turnierID&lt;/td&gt;&lt;td&gt;deleteTurnier(id)&lt;br&gt;&lt;/td&gt;&lt;td&gt;löscht Turnier aus DB&lt;br&gt;&lt;/td&gt;&lt;td&gt;{&lt;br&gt;&amp;nbsp; user: &quot;something&quot;,&lt;br&gt;&amp;nbsp; password: &quot;new&quot;&lt;br&gt;}&lt;/td&gt;&lt;td&gt;&quot;ok&quot;&lt;/td&gt;&lt;/tr&gt;&lt;tr&gt;&lt;td&gt;POST&lt;/td&gt;&lt;td&gt;/api/turnierverwaltung&lt;br&gt;/addTeilnehmerToTurnier&lt;/td&gt;&lt;td&gt;addTeilnehmerToTurnier(teilnehmer)&lt;br&gt;&lt;/td&gt;&lt;td&gt;fügt Mannschaften zu einem Turnier hinzu&lt;/td&gt;&lt;td&gt;[&lt;br&gt;&amp;nbsp; teamId: integer,&lt;br&gt;teamId: integer&lt;br&gt;]&lt;/td&gt;&lt;td&gt;&lt;br&gt;&lt;/td&gt;&lt;/tr&gt;&lt;/tbody&gt;&lt;/table&gt;" style="text;html=1;strokeColor=#c0c0c0;fillColor=#ffffff;overflow=fill;rounded=0;shadow=1;fontSize=14;fontColor=#000000;" parent="1" vertex="1">
                    <mxGeometry x="180" y="270" width="1190" height="450" as="geometry"/>
                </mxCell>
                <mxCell id="fNutxt6jnyIekaHuC7iD-2" value="&lt;font style=&quot;font-size: 48px&quot;&gt;Turnierverwaltung&lt;/font&gt;" style="text;html=1;strokeColor=none;fillColor=none;align=center;verticalAlign=middle;whiteSpace=wrap;rounded=0;" parent="1" vertex="1">
                    <mxGeometry x="660" y="210" width="160" height="30" as="geometry"/>
                </mxCell>
            </root>
        </mxGraphModel>
    </diagram>
</mxfile>